<?xml version="1.0" encoding="UTF-8"?>
<!DOCTYPE svg  PUBLIC '-//W3C//DTD SVG 1.1//EN'  'http://www.w3.org/Graphics/SVG/1.1/DTD/svg11.dtd'>
<svg enable-background="new 0 0 190 32" version="1.1" viewBox="0 0 190 32" xml:space="preserve" xmlns="http://www.w3.org/2000/svg">
<path d="m129.1 3.6s5.7 0.3 3.9 4.6c-1.4 3.4-6.1-2.8-7.6 3.3-0.2 0.7-0.2 4.6-0.1 8.1-0.1 1.6 1.4 4.9 4.3 2.9v-4.3c-4.3 0-3.6-5.4 0-5.4 2.6 0 1.7-0.1 3.3 0 0 0 2.4 0.3 2.3 5.2 0 0 0 3.6-0.1 6.3-0.3 1.4-1.1 3-5.1 3.8-3.9 0.7-6.9-1.4-7.5-2s-2.4-2.3-2.7-5.7c-0.2-3.4-0.3-7.2 0-10.2 0.4-3 2.5-4.7 4.8-5.8 2.3-1.2 4.5-0.8 4.5-0.8" fill="#f00"/>
<path d="m142.1 22.4v-4.6h3.4s-1.4 0 0 0c3.7 0 4-5 0.1-5.2h-3.5v-3.5h3.8s-1.4 0 0 0c3.7 0 3.9-5.2 0-5.4-0.9 0 0 0 0 0h-6.8c-2.3 0.1-3.1 1.2-3.1 5.4v0 13.3c0 4.1 0.8 5.2 3.2 5.3h6.8s-0.9 0 0 0c3.9-0.2 3.7-5.3 0-5.3h-3.9" fill="#f00"/>
<path d="m48.4 22.4v-4.6h3.4s-1.4 0 0 0c3.7 0 4-5 0.1-5.2h-3.5v-3.5h3.8s-1.4 0 0 0c3.7 0 3.9-5.2 0-5.3-0.9 0 0 0 0 0h-6.8c-2.3 0.1-3.1 1.2-3.1 5.3v0 13.3c0 4.1 0.8 5.2 3.2 5.3h6.8s-0.9 0 0 0c3.9-0.2 3.7-5.3 0-5.3h-3.9" fill="#f00"/>
<path d="m166.8 27.2-5.7-9.8c2.3-1.7 3.8-3.5 3.7-6.4 0-3.9-3.3-7.1-7.1-7.1-1.9 0-4.8-0.1-4.8 0-1.6 0-2.7 1.3-2.7 2.9v18c0 1.6 1.1 3 2.7 3s2.8-1.3 2.8-3v-6.3l6.3 11.3c0.8 1.4 2.6 2 3.9 1.3 1.3-0.8 1.7-2.5 0.9-3.9zm-9.8-13.6h-1.3v-5h1.3c1.4 0 2.6 1.1 2.6 2.5s-1.2 2.5-2.6 2.5z" fill="#f00"/>
<path d="m118.9 23.7-3.7-6.3c2.3-1.7 3.8-3.5 3.7-6.4 0-3.9-3.3-7.2-7.1-7.2h-4.6c-1.6 0-2.6 1.3-2.6 3v18c0 1.6 1.2 3 2.8 3s2.7-1.3 2.7-3l-0.1-5.3 4.1 6.8c0.8 1.4 2.6 2 3.9 1.3 1.4-0.8 1.8-2.5 0.9-3.9zm-7.6-10.2h-1.3v-4.9h1.4c1.4 0 2.6 1.1 2.6 2.5-0.1 1.3-1.3 2.4-2.7 2.4z" fill="#f00"/>
<path d="m82.7 15.1c2-1.7 2.7-3.7 2.1-6.2-0.7-3.1-3.2-5-6.4-5h-4.3-0.1c-1.5 0-2.8 1.3-2.8 3v18c0 1.6 1.2 3 2.8 3h5.2c2.7 0 7.3-2.3 7.3-6.8 0-2.8-1.3-4.8-3.8-6zm-6-6.7h1.1c1.3 0 2.3 0.9 2.3 2.1s-1 2.2-2.3 2.2h-1.1v-4.3zm1.3 14.8h-1.4v-5.2h1.4c1.5 0 2.7 1.2 2.7 2.6 0 1.5-1.2 2.6-2.7 2.6z" fill="#f00"/>
<path d="m40.7 24.9c0 4-5.9 3.7-5.9 0.2v-9h-4v8.9c0 4-5.9 3.7-5.9 0.2v-22.8 0.3c0-3.5 5.9-3.8 5.9 0.2v7.9h4v-8.1c0-3.5 5.9-3.7 5.9 0.2v22" fill="#f00"/>
<path d="m69.1 6.8c-1-1.5-1.9-2-3.5-2.7-0.9-0.4-3.6-0.6-5.6 0.2-1.8 0.8-2.8 1.6-3.6 3.4-1 2.2-1 4.1 0.4 6.1 1.3 1.9 2.9 2.8 4.7 3.5 3.1 1.3 4.2 3.2 3.6 4.4-0.4 0.8-1 1.5-2.2 1.4-1.7 0-2.3-1.1-2.9-2.5-0.4-1-1.7-1.7-3.3-1.1-2 0.8-1.9 3-1.1 4.3 1.7 2.9 3.9 4 7.3 4 2.8 0 4.7-1.1 6.4-3.3 2.1-2.8 1.8-6.5-0.5-9-1.4-1.6-2.8-2-4.8-2.9-2.4-1.1-3-2.4-2.2-3.4 1-1.1 2.7-0.3 3.8 0.7 0.8 0.7 2.2 0.6 3.1-0.2 0.7-0.6 1-2.1 0.4-2.9" fill="#f00"/>
	<path d="m103 20.2c0 4.3-3.5 7.7-7.9 7.7s-7.9-3.5-7.9-7.7v-13.5c0-1.6 1.3-3 2.9-3s2.9 1.3 2.9 3v13.9c0 1.2 1 2.2 2.2 2.2s2.2-0.9 2.2-2.1v-14c0-1.6 1.3-3 2.9-3s2.9 1.3 2.9 3l-0.2 13.5" fill="#f00"/>
	<polyline points="9.9 5.9 9.8 5.9 7.6 12.1 0 12.1 0 12.1 6.2 16.1 3.8 22.4 3.8 22.4 9.9 18.5 15.9 22.4 16 22.4 13.6 16.1 19.7 12.1 19.7 12.1 12.1 12.1 9.9 5.9" fill="#066AA5"/>
<polyline points="180.3 5.9 180.2 5.9 177.9 12.1 170.4 12.1 170.4 12.1 176.5 16.1 174.1 22.4 174.2 22.4 180.2 18.5 186.3 22.4 186.3 22.4 184 16.1 190.1 12.1 190.1 12.1 182.5 12.1 180.3 5.9" fill="#066AA5"/>
<ellipse cx="166.7" cy="4.9" rx="1.4" ry="1.4" fill="none" stroke="#f00" stroke-miterlimit="3.864" stroke-width="2.1416"/>
<path d="m166.3 4.9v-0.6h0.3c0.3 0 0.5 0.1 0.5 0.3s-0.1 0.3-0.4 0.3h-0.4m0.7 0.2c0.3 0 0.5-0.2 0.5-0.6 0-0.5-0.4-0.6-0.8-0.6h-0.7v1.9h0.4v-0.6h0.3l0.5 0.7h0.5l-0.7-0.8z" fill="#f00"/>
</svg>
